<svg xmlns="http://www.w3.org/2000/svg" width="140" height="28" viewBox="0 0 140 28">
    <g fill="#FFF" fill-rule="evenodd" opacity=".9">
        <path d="M140 5.6h-4.985s-2.832 9.754-3.347 10.929c0 0-3.166-8.617-3.641-10.929h-5.112s2.457 8.447 6.41 15.873l-.01.033a3.947 3.947 0 0 1-1.57 1.876c-.34.216-.72.384-1.12.492-.414.11-.83.135-1.255.14-.23.005-1.777-.003-1.777-.003V28s2.687 0 2.687-.002c.056 0 .113-.01.169-.01h.142v-.01c.39-.019.774-.061 1.143-.142a7.185 7.185 0 0 0 4.12-2.536l.004.007C136.244 20.074 140 5.6 140 5.6M85.828 17.148c-.59.84-1.434 1.263-2.524 1.263-1.095 0-1.94-.423-2.54-1.263-.6-.842-.898-1.98-.898-3.413 0-1.434.298-2.561.899-3.38.6-.822 1.444-1.232 2.54-1.232 1.09 0 1.932.41 2.523 1.232.587.819.882 1.946.882 3.38s-.295 2.571-.882 3.413M89.282 7.5a7.669 7.669 0 0 0-2.62-1.744c-1.019-.414-2.137-.623-3.358-.623-1.2 0-2.31.209-3.323.623A7.8 7.8 0 0 0 77.342 7.5c-.738.75-1.317 1.655-1.733 2.714-.418 1.06-.626 2.232-.626 3.521 0 1.29.2 2.47.608 3.537.406 1.07.975 1.988 1.704 2.744.728.76 1.6 1.345 2.62 1.76 1.015.414 2.145.624 3.39.624 1.263 0 2.401-.21 3.42-.625a7.523 7.523 0 0 0 2.62-1.759c.728-.756 1.284-1.675 1.67-2.744.387-1.067.578-2.248.578-3.537 0-1.289-.2-2.462-.61-3.521-.405-1.059-.974-1.964-1.701-2.714M105.698 7.281c-.56-.682-1.32-1.213-2.284-1.59-.96-.375-2.165-.558-3.612-.558-1.428 0-2.786.099-4.084.303-1.295.203-2.352.423-3.176.656V22.4h4.83V9.368c.303-.044.646-.083 1.038-.114.387-.03.755-.046 1.1-.046 1.124 0 1.888.321 2.303.963.41.64.616 1.734.616 3.272V22.4h4.825v-9.535c0-1.154-.119-2.202-.355-3.147-.24-.94-.638-1.75-1.201-2.437M67.714 3.046a133.224 133.224 0 0 0-1.57 3.324c-.543 1.19-1.083 2.41-1.617 3.654-.533 1.245-1.037 2.418-1.504 3.514-.468-1.096-.97-2.27-1.507-3.514a179.297 179.297 0 0 0-1.614-3.654 149.145 149.145 0 0 0-1.57-3.324 62.216 62.216 0 0 0-1.326-2.58H51.73V22.4h5.033V9.546l.598 1.237c.466 1.077.934 2.153 1.39 3.23.461 1.076.907 2.103 1.332 3.085l1.09 2.516h3.48c.298-.697.662-1.535 1.09-2.516.427-.982.87-2.01 1.329-3.085.458-1.077.921-2.153 1.395-3.23.184-.428.364-.84.536-1.237V22.4h5.032V.467H69.04s-.841 1.59-1.327 2.579"/>
        <path d="M112.88 10.945a3.03 3.03 0 0 1 .59-1.012c.252-.29.568-.525.945-.703.384-.176.839-.265 1.368-.265.548 0 1.006.097 1.377.284a2.82 2.82 0 0 1 1.458 1.711c.117.375.188.76.207 1.154h-6.244a6.16 6.16 0 0 1 .3-1.169m4.295 7.465c-1.354 0-2.43-.28-3.235-.842-.802-.561-1.254-1.318-1.36-2.272h10.713c.02-.253.041-.537.064-.86.016-.32.032-.619.032-.888 0-2.763-.688-4.858-2.06-6.278-1.375-1.424-3.246-2.137-5.613-2.137a8.104 8.104 0 0 0-2.965.564c-.96.372-1.81.924-2.548 1.65-.742.726-1.339 1.634-1.795 2.725-.453 1.092-.68 2.366-.68 3.818 0 1.207.175 2.328.525 3.367a7.011 7.011 0 0 0 1.615 2.694c.729.762 1.648 1.358 2.757 1.794 1.11.437 2.413.655 3.916.655.593 0 1.183-.031 1.774-.094.592-.06 1.146-.141 1.666-.235.517-.093.987-.2 1.41-.326.136-.04.249-.082.37-.121v-4.02c-.525.228-1.204.417-2.036.572-.831.158-1.682.234-2.55.234M20.274 7.281c-.563-.682-1.322-1.213-2.283-1.59-.96-.375-2.164-.558-3.613-.558-1.426 0-2.788.099-4.084.303-1.295.203-2.353.423-3.175.656V22.4h4.828V9.368c.302-.044.647-.083 1.038-.114.388-.03.753-.046 1.1-.046 1.124 0 1.89.321 2.302.963.409.64.613 1.734.613 3.272V22.4h4.83v-9.535c0-1.154-.119-2.202-.356-3.147-.24-.94-.64-1.75-1.2-2.437M44.539 17.148c-.588.84-1.43 1.263-2.524 1.263-1.09 0-1.937-.423-2.54-1.263-.597-.842-.897-1.98-.897-3.413 0-1.434.3-2.561.897-3.38.603-.822 1.45-1.232 2.54-1.232 1.094 0 1.936.41 2.524 1.232.59.819.882 1.946.882 3.38s-.292 2.571-.882 3.413m3.45-9.648a7.603 7.603 0 0 0-2.615-1.744c-1.017-.414-2.137-.623-3.36-.623-1.198 0-2.306.209-3.322.623A7.792 7.792 0 0 0 36.055 7.5c-.738.75-1.317 1.655-1.734 2.714-.418 1.06-.626 2.232-.626 3.521 0 1.29.2 2.47.61 3.537.405 1.07.975 1.988 1.703 2.744.726.76 1.6 1.345 2.62 1.76 1.016.414 2.145.624 3.387.624 1.264 0 2.406-.21 3.424-.625a7.503 7.503 0 0 0 2.618-1.759c.727-.756 1.286-1.675 1.672-2.744.386-1.067.576-2.248.576-3.537 0-1.289-.204-2.462-.612-3.521-.403-1.059-.972-1.964-1.705-2.714M0 22.4h4.746V.467H0z"/>
        <path d="M28.673 5.674a1.74 1.74 0 0 1 .959-1.503 1.28 1.28 0 0 1 .09-.045c.005-.002.009-.002.015-.006.067-.027.132-.05.195-.07.412-.13.814-.112 1.24-.112h3.472V0h-5.062c-3.212 0-5.82 2.496-5.845 5.587l.006-.001c-.014.34-.014 16.814-.014 16.814h4.94V11.46h5.305V7.557h-5.301V5.674z"/>
    </g>
</svg>
